<?xml version="1.0" standalone="no"?>
<!DOCTYPE svg PUBLIC "-//W3C//DTD SVG 20010904//EN"
 "http://www.w3.org/TR/2001/REC-SVG-20010904/DTD/svg10.dtd">
<svg version="1.0" xmlns="http://www.w3.org/2000/svg"
 width="18px" height="18px" viewBox="0 0 1280.000000 640.000000"
 preserveAspectRatio="xMidYMid meet">
<metadata>
Created by potrace 1.15, written by Peter Selinger 2001-2017
</metadata>
<g transform="translate(0.000000,640.000000) scale(0.100000,-0.100000)"
fill="#000000" stroke="none">
<path d="M3495 5230 c-82 -21 -249 -73 -370 -115 -349 -121 -435 -141 -715
-170 -85 -8 -231 -30 -325 -48 -160 -30 -183 -32 -395 -32 -205 0 -236 3 -350
27 -173 37 -226 42 -311 29 -115 -18 -195 -48 -255 -97 -30 -24 -77 -58 -106
-76 -29 -17 -72 -46 -95 -65 -53 -42 -136 -165 -158 -235 -10 -29 -35 -77 -57
-105 -97 -127 -109 -222 -52 -408 19 -64 33 -120 29 -123 -3 -3 -29 2 -59 11
-29 9 -66 17 -83 17 -29 0 -31 -2 -52 -82 -26 -93 -41 -127 -81 -178 -44 -57
-60 -96 -60 -150 0 -111 52 -284 103 -339 12 -13 58 -40 102 -61 89 -41 430
-247 458 -276 57 -60 77 -93 77 -131 0 -62 27 -151 73 -236 l42 -79 65 6 c36
3 89 6 118 6 49 0 54 2 73 34 20 34 95 76 136 76 32 0 79 37 92 71 7 19 19 49
27 66 l14 33 87 -6 88 -6 101 50 c243 120 598 198 1014 221 202 12 359 3 590
-35 85 -13 187 -30 225 -36 42 -6 254 -12 535 -13 256 -1 557 -7 670 -15 226
-14 901 -9 1205 10 628 38 853 61 1365 142 200 31 548 31 750 -1 245 -39 271
-41 335 -30 33 6 73 18 88 27 28 17 29 18 25 88 -5 76 -31 136 -80 182 -23 21
-24 26 -16 88 12 85 39 157 84 218 33 45 37 48 48 30 7 -12 11 -82 11 -194 0
-188 8 -224 58 -278 51 -55 149 -72 215 -38 l33 17 42 -41 c48 -49 78 -66 132
-75 59 -11 91 -30 165 -100 84 -79 124 -99 343 -174 213 -73 266 -96 358 -156
131 -85 228 -194 298 -333 l32 -63 -31 -35 c-19 -22 -30 -45 -30 -65 0 -26 6
-33 43 -49 23 -10 69 -24 102 -30 142 -29 225 -107 242 -225 5 -41 4 -45 -16
-45 -33 0 -92 33 -157 89 -33 29 -73 54 -92 57 -39 7 -110 -17 -150 -51 -24
-21 -25 -25 -16 -71 9 -48 10 -50 81 -85 54 -26 89 -54 138 -107 48 -51 85
-81 132 -104 96 -47 176 -44 388 12 128 34 187 44 292 51 83 5 144 14 162 23
85 45 170 227 221 475 11 54 20 115 20 135 0 50 18 46 72 -16 36 -43 75 -69
199 -137 173 -95 246 -156 283 -235 13 -28 48 -103 77 -166 29 -63 54 -117 55
-119 1 -1 48 -14 104 -27 55 -13 109 -28 119 -33 9 -5 55 -44 101 -85 117
-106 175 -120 250 -57 l34 28 -13 44 c-11 35 -35 65 -122 149 -112 109 -133
142 -145 226 -6 46 -9 51 -57 79 -42 25 -55 38 -69 78 -28 75 -44 93 -165 183
-128 96 -150 122 -227 273 -33 65 -71 122 -96 146 -23 22 -53 62 -67 89 -34
67 -104 139 -191 198 -183 123 -225 220 -243 558 -16 302 -34 353 -132 379
-54 14 -65 23 -115 98 -80 118 -131 140 -352 154 -178 11 -233 19 -385 60
-144 40 -244 74 -330 115 -76 35 -215 129 -215 144 0 13 64 23 118 18 26 -3
82 -19 125 -36 75 -31 84 -32 222 -32 l143 0 48 35 c172 124 216 141 350 133
65 -4 95 -12 170 -47 99 -44 173 -54 204 -26 9 9 48 17 100 21 120 9 155 27
263 138 80 80 101 97 147 110 30 9 68 16 86 16 27 0 38 8 68 49 58 79 79 135
74 199 -5 58 -19 77 -66 89 -34 8 -93 -12 -149 -52 -127 -91 -118 -89 -318
-96 -165 -6 -188 -9 -275 -38 -148 -49 -274 -71 -397 -71 -147 0 -227 14 -334
55 -129 50 -169 45 -169 -17 0 -15 -2 -28 -4 -28 -2 0 -24 11 -47 25 -24 14
-53 25 -64 25 -12 0 -58 -18 -103 -40 -45 -22 -110 -48 -145 -57 -80 -22 -268
-21 -397 1 -142 24 -239 22 -281 -7 -31 -21 -60 -64 -73 -109 -4 -14 -16 -18
-48 -18 -26 0 -55 -8 -73 -20 -16 -11 -36 -20 -43 -20 -7 0 -48 21 -92 46
l-80 47 -93 -8 c-50 -4 -117 -6 -147 -4 -101 7 -357 1 -447 -11 -48 -6 -200
-40 -338 -75 -391 -100 -708 -160 -993 -186 -131 -12 -312 -7 -371 10 -93 28
-231 33 -430 15 -147 -12 -232 -14 -341 -9 -80 5 -199 8 -265 7 -66 -1 -379
-3 -695 -5 -628 -3 -590 0 -1004 -73 -110 -19 -260 -44 -335 -55 -161 -23
-491 -38 -491 -21 0 45 341 226 575 305 77 25 237 74 355 107 276 78 340 99
340 112 0 17 -143 2 -254 -26 -55 -14 -101 -24 -103 -22 -2 2 60 25 137 52
l140 49 0 68 c0 63 3 73 35 117 19 26 32 50 28 54 -18 18 -50 0 -105 -59 -68
-73 -99 -88 -46 -22 33 40 58 79 58 91 0 22 -37 -9 -132 -108 -105 -110 -110
-114 -143 -109 -21 3 -41 1 -50 -7 -32 -27 -13 11 30 60 50 56 64 105 23 78
-13 -8 -32 -29 -44 -45 l-20 -30 -30 23 c-38 31 -47 30 -66 -8 -36 -76 -158
-198 -197 -198 -22 0 -10 32 28 73 45 49 61 78 61 107 0 19 -1 20 -24 5 -13
-9 -47 -49 -75 -90 -48 -70 -108 -131 -118 -121 -3 2 18 38 46 80 28 41 51 78
51 81 0 3 -10 5 -22 5 -17 -1 -34 -18 -63 -63 -22 -33 -51 -74 -64 -89 -25
-31 -79 -63 -88 -54 -4 3 10 29 29 58 35 54 68 112 68 123 0 3 -4 5 -10 5 -20
0 -79 -71 -119 -143 -39 -70 -71 -96 -71 -56 0 10 11 49 25 85 14 37 23 69 21
71 -9 10 -65 -60 -71 -89 -12 -61 -27 -87 -60 -102 -44 -21 -95 -31 -95 -19 0
5 11 42 24 81 20 57 22 72 11 72 -18 0 -56 -72 -64 -120 -5 -30 -11 -36 -44
-44 -20 -5 -39 -7 -42 -4 -4 3 3 43 15 88 12 45 19 84 17 86 -8 8 -39 -48 -54
-98 -16 -56 -52 -98 -83 -98 -24 0 -24 1 -5 64 30 99 10 82 -68 -55 -12 -23
-21 -29 -28 -22 -8 8 -3 34 15 87 15 42 24 81 21 86 -16 26 -34 1 -64 -91 -18
-55 -38 -102 -44 -104 -7 -2 -24 -6 -39 -9 -26 -6 -26 -7 -12 -35 13 -26 12
-34 -6 -80 -25 -65 -25 -65 4 -46 13 9 34 38 45 65 19 44 64 90 76 78 2 -2 -7
-35 -21 -72 -14 -38 -23 -73 -21 -79 7 -23 58 40 70 88 9 38 20 55 47 73 31
20 35 21 38 7 2 -9 -15 -54 -38 -101 -39 -77 -46 -114 -20 -114 5 0 31 44 56
98 26 53 52 100 58 104 13 9 56 11 56 3 0 -3 -20 -45 -45 -93 -53 -102 -56
-120 -20 -96 15 9 45 57 72 110 l46 94 49 0 c26 0 48 -3 48 -8 0 -11 -27 -49
-76 -107 -44 -53 -79 -113 -70 -122 13 -13 70 45 108 109 41 69 91 128 109
128 12 0 12 -2 -11 -55 -26 -60 -6 -56 35 7 29 44 80 86 92 75 7 -8 -60 -117
-89 -144 -13 -11 -46 -34 -74 -51 -27 -16 -71 -45 -97 -65 -26 -20 -64 -39
-85 -43 -50 -10 -415 12 -525 31 -48 9 -125 27 -171 40 -135 39 -346 125 -365
148 -80 103 -132 125 -330 137 -69 5 -138 11 -152 15 l-27 7 14 -59 c7 -32 14
-64 14 -71 0 -7 -29 10 -65 37 -108 83 -175 87 -218 13 -11 -18 -18 -35 -16
-37 3 -2 39 1 82 7 l78 11 29 -34 c16 -19 41 -56 57 -84 25 -45 28 -60 28
-140 0 -75 -4 -98 -25 -140 -30 -62 -78 -110 -154 -155 -33 -19 -58 -39 -57
-45 3 -14 78 -9 123 10 38 15 39 15 34 -5 -3 -11 -8 -29 -11 -39 -8 -29 -40
-32 -202 -21 -148 11 -225 23 -370 60 -111 29 -124 44 -147 177 l-13 73 26 -7
c28 -7 60 -7 68 1 2 2 -19 38 -48 79 -62 90 -76 154 -41 197 21 26 14 28 102
-21 31 -17 35 -17 38 -3 2 8 -9 34 -25 57 -15 23 -32 51 -36 62 -13 33 12 99
57 151 24 27 55 70 69 95 36 61 51 73 120 99 31 12 79 38 105 59 26 21 58 44
72 51 81 43 227 51 373 20 234 -49 395 -64 538 -50 132 14 489 65 639 91 322
58 589 136 815 239 39 17 137 49 219 71 166 45 216 63 216 78 0 17 -24 13
-185 -29z m147 -572 c-30 -44 -72 -87 -72 -74 0 24 73 116 92 116 5 0 -4 -19
-20 -42z m88 -88 c-20 -13 -33 -13 -25 0 3 6 14 10 23 10 15 0 15 -2 2 -10z
m-65 -90 c-3 -5 -14 -10 -23 -9 -14 0 -13 2 3 9 27 11 27 11 20 0z m-105 -19
c0 -16 -30 -41 -48 -41 -13 1 -10 7 11 25 31 27 37 30 37 16z m-109 -53 c-7
-21 -66 -46 -78 -34 -9 9 46 56 66 56 17 0 19 -4 12 -22z m-430 -31 c-8 -8
-11 -7 -11 4 0 20 13 34 18 19 3 -7 -1 -17 -7 -23z m329 28 c0 -25 -35 -64
-69 -77 -38 -15 -42 -15 -51 0 -9 15 -14 13 -41 -16 -33 -37 -89 -60 -89 -38
0 22 44 80 73 96 26 14 29 14 42 -3 13 -18 16 -18 67 11 55 31 68 36 68 27z
m7538 -72 c-27 -2 -69 -2 -95 0 -27 2 -5 3 47 3 52 0 74 -1 48 -3z m-188 -17
c-47 -13 -69 -25 -160 -82 -30 -19 -61 -34 -70 -34 -8 0 4 9 28 20 23 10 57
30 75 44 44 34 116 66 147 65 17 -1 11 -5 -20 -13z m295 4 c25 -11 -1 -11 -35
0 -20 6 -21 8 -5 8 11 0 29 -3 40 -8z m-1800 -10 c-3 -5 -12 -10 -18 -10 -7 0
-6 4 3 10 19 12 23 12 15 0z m1911 -26 c31 -9 73 -14 94 -12 21 2 36 0 34 -4
-9 -14 -81 -8 -148 12 -36 12 -66 23 -66 26 0 4 7 3 15 0 9 -3 41 -13 71 -22z
m-1949 10 c-3 -3 -12 -4 -19 -1 -8 3 -5 6 6 6 11 1 17 -2 13 -5z m-134 -151
c21 -65 37 -127 37 -138 0 -11 -18 -40 -40 -65 -49 -56 -53 -47 -5 10 19 23
35 47 35 53 0 14 -67 234 -75 248 -4 5 -2 9 3 9 5 0 25 -53 45 -117z m-7426
-135 c-2 -13 -4 -3 -4 22 0 25 2 35 4 23 2 -13 2 -33 0 -45z m-18 -96 c-14
-52 -59 -155 -66 -149 -2 2 8 28 22 58 13 30 30 78 37 108 6 30 14 49 16 42 2
-7 -2 -34 -9 -59z m6611 14 c0 -2 -8 -10 -17 -17 -16 -13 -17 -12 -4 4 13 16
21 21 21 13z m1160 -109 c0 -2 -10 -12 -22 -23 l-23 -19 19 23 c18 21 26 27
26 19z m-354 -150 c-34 -68 -199 -242 -248 -262 -21 -8 -38 -12 -38 -7 0 4 16
14 36 21 22 8 66 44 111 91 96 100 128 144 144 200 8 27 15 38 17 27 2 -10 -8
-42 -22 -70z m-2273 56 c-7 -2 -21 -2 -30 0 -10 3 -4 5 12 5 17 0 24 -2 18 -5z
m94 -9 c-3 -3 -12 -4 -19 -1 -8 3 -5 6 6 6 11 1 17 -2 13 -5z m-4832 -84 c130
-70 155 -87 73 -51 -56 25 -226 121 -213 121 6 0 69 -32 140 -70z m4565 40
c193 -11 375 -36 609 -81 254 -50 489 -125 465 -149 -19 -18 -263 -58 -649
-107 -213 -27 -234 -28 -635 -26 -911 5 -1961 47 -2585 103 -222 21 -408 50
-444 69 -21 12 54 27 254 51 99 11 268 34 375 50 419 63 741 89 1115 91 127 1
262 5 300 9 94 11 976 4 1195 -10z m3398 13 c-15 -2 -42 -2 -60 0 -18 2 -6 4
27 4 33 0 48 -2 33 -4z m170 -10 c-21 -2 -55 -2 -75 0 -21 2 -4 4 37 4 41 0
58 -2 38 -4z m95 -10 c-7 -2 -21 -2 -30 0 -10 3 -4 5 12 5 17 0 24 -2 18 -5z
m54 -9 c-3 -3 -12 -4 -19 -1 -8 3 -5 6 6 6 11 1 17 -2 13 -5z m60 -10 c-3 -3
-12 -4 -19 -1 -8 3 -5 6 6 6 11 1 17 -2 13 -5z m-1882 -73 c-21 -43 -29 -39
-8 4 9 19 18 33 21 31 2 -2 -4 -18 -13 -35z m-880 19 c-27 -12 -43 -12 -25 0
8 5 22 9 30 9 10 0 8 -3 -5 -9z m2635 -11 c160 -19 288 -61 373 -122 42 -29
21 -42 -66 -41 -108 2 -460 114 -497 160 -11 12 -4 14 47 14 32 0 97 -5 143
-11z m936 -92 c-10 -33 -31 -71 -56 -100 -43 -49 -128 -97 -169 -96 -21 0 -18
3 14 13 66 21 101 43 144 92 38 44 69 115 72 168 2 19 2 19 6 -2 2 -12 -3 -46
-11 -75z m-2716 40 c0 -2 -12 -14 -27 -28 l-28 -24 24 28 c23 25 31 32 31 24z
m2899 -60 c-2 -3 -15 10 -28 27 l-24 31 28 -27 c16 -15 27 -29 24 -31z
m-10229 -38 c156 -24 166 -28 323 -106 70 -35 167 -77 215 -94 52 -18 71 -28
47 -24 -49 8 -126 40 -270 112 -144 72 -163 79 -302 99 -65 9 -134 23 -153 31
-19 7 -24 11 -10 8 14 -4 81 -15 150 -26z m7192 -2 c46 -25 52 -42 43 -114 -9
-76 -37 -103 -102 -102 -46 1 -47 1 -14 9 56 13 66 31 66 117 l0 77 -40 24
c-50 29 -8 19 47 -11z m671 -98 c-5 -5 -6 11 -3 34 4 41 5 41 8 8 2 -18 0 -37
-5 -42z m762 -100 c240 -153 393 -214 670 -264 77 -14 158 -30 179 -36 41 -11
106 -67 106 -90 0 -8 -8 -2 -17 13 -28 45 -80 65 -253 97 -91 17 -206 42 -255
56 -115 33 -299 123 -440 216 -69 45 -139 82 -188 99 -43 14 -75 29 -71 32 14
15 151 -48 269 -123z m-607 74 c-10 -2 -26 -2 -35 0 -10 3 -2 5 17 5 19 0 27
-2 18 -5z m-198 -33 c-6 -11 -13 -20 -16 -20 -2 0 0 9 6 20 6 11 13 20 16 20
2 0 0 -9 -6 -20z m300 10 c8 -5 11 -10 5 -10 -5 0 -17 5 -25 10 -8 5 -10 10
-5 10 6 0 17 -5 25 -10z m80 -46 c0 -2 -9 0 -20 6 -11 6 -20 13 -20 16 0 2 9
0 20 -6 11 -6 20 -13 20 -16z m721 -4 c196 -42 364 -116 431 -189 40 -43 41
-46 21 -49 -37 -5 -203 27 -293 58 -102 34 -334 144 -361 171 -35 35 -24 42
49 35 37 -4 106 -15 153 -26z m-1140 -41 c-11 -24 -20 -41 -20 -37 -1 12 31
89 35 85 3 -2 -4 -24 -15 -48z m-816 31 c-3 -5 6 -17 20 -26 14 -9 24 -19 21
-21 -6 -7 -60 23 -75 41 -12 14 -10 16 13 16 15 0 25 -4 21 -10z m-6292 -27
c-7 -2 -21 -2 -30 0 -10 3 -4 5 12 5 17 0 24 -2 18 -5z m-548 -12 c-6 -4 -41
-34 -80 -66 -38 -32 -103 -90 -142 -129 -40 -39 -73 -65 -73 -59 0 23 272 263
298 263 3 0 2 -4 -3 -9z m983 2 c-10 -2 -28 -2 -40 0 -13 2 -5 4 17 4 22 1 32
-1 23 -4z m-846 -35 c-23 -18 -75 -74 -117 -125 -41 -51 -85 -97 -96 -104 -12
-6 17 32 65 86 47 53 86 101 86 106 0 11 79 69 93 69 5 0 -9 -15 -31 -32z
m1003 13 c50 -11 81 -19 70 -19 -11 -1 -63 7 -115 17 -52 11 -84 19 -70 19 14
1 66 -7 115 -17z m-1085 -19 c-51 -35 -92 -76 -132 -133 -38 -55 -102 -108
-114 -96 -3 3 6 12 21 19 14 8 52 47 83 88 56 72 132 141 155 139 7 0 1 -8
-13 -17z m-860 -3 c0 -6 28 -39 63 -72 34 -34 48 -52 31 -40 -30 22 -114 108
-114 118 0 3 5 5 10 5 6 0 10 -5 10 -11z m7948 -1 c6 -6 19 -44 28 -85 21 -88
17 -93 -61 -92 -50 1 -50 1 -12 9 20 4 40 10 43 13 8 8 -24 137 -38 154 -14
17 23 18 40 1z m2509 -10 c-3 -8 -6 -5 -6 6 -1 11 2 17 5 13 3 -3 4 -12 1 -19z
m-8390 6 c-3 -3 -12 -4 -19 -1 -8 3 -5 6 6 6 11 1 17 -2 13 -5z m-1087 -55
c-82 -72 -106 -82 -36 -15 38 37 72 64 75 60 3 -3 -14 -23 -39 -45z m61 -25
c-95 -89 -130 -118 -137 -112 -2 3 15 21 38 40 24 19 69 61 100 92 32 31 63
56 69 56 6 0 -26 -34 -70 -76z m239 57 c0 -11 -170 -174 -176 -168 -5 5 157
174 169 176 4 0 7 -3 7 -8z m235 -5 c-25 -6 -62 -32 -102 -70 -70 -65 -90 -70
-42 -10 17 21 34 45 38 52 10 17 79 41 116 40 28 0 28 -1 -10 -12z m6915 10
c0 -2 -8 -10 -17 -17 -16 -13 -17 -12 -4 4 13 16 21 21 21 13z m-7250 -11 c0
-2 -9 -9 -20 -15 -12 -6 -20 -7 -20 -1 0 5 8 12 18 14 9 3 18 5 20 6 1 0 2 -1
2 -4z m188 -7 c-6 -16 -36 -34 -44 -26 -3 4 -4 14 -1 23 7 17 51 21 45 3z
m7622 -43 c30 -15 87 -51 126 -79 39 -29 240 -137 460 -248 311 -157 393 -203
402 -223 19 -41 14 -54 -6 -16 -15 29 -58 54 -398 225 -210 106 -417 218 -460
248 -44 31 -99 66 -124 78 -52 26 -80 48 -80 64 0 6 6 4 13 -5 7 -9 37 -29 67
-44z m1457 33 c-3 -8 -6 -5 -6 6 -1 11 2 17 5 13 3 -3 4 -12 1 -19z m-8552
-19 c-60 -4 -145 -15 -189 -24 -43 -9 -81 -14 -83 -11 -16 16 175 44 292 44
l90 -1 -110 -8z m8510 -77 c-20 -39 -46 -79 -57 -89 -13 -11 -8 2 13 32 19 28
43 69 53 93 11 23 21 40 23 38 3 -3 -12 -36 -32 -74z m-9304 30 c-24 -35 -88
-92 -101 -92 -5 0 18 28 53 63 66 67 83 77 48 29z m1644 28 c-82 -4 -215 -7
-295 -7 l-145 1 150 6 c83 3 215 6 295 6 l145 0 -150 -6z m403 3 c-26 -2 -71
-2 -100 0 -29 2 -8 3 47 3 55 0 79 -1 53 -3z m215 -10 c-7 -2 -21 -2 -30 0
-10 3 -4 5 12 5 17 0 24 -2 18 -5z m3797 -3 c-85 -4 -186 -15 -225 -25 -143
-34 -223 -45 -518 -75 -818 -80 -983 -90 -1512 -94 l-440 -4 405 8 c519 10
732 24 1460 95 222 22 410 46 500 65 80 16 156 31 170 33 14 2 90 4 170 4
l145 0 -155 -7z m-3693 -6 c-3 -3 -12 -4 -19 -1 -8 3 -5 6 6 6 11 1 17 -2 13
-5z m196 -11 c-7 -2 -21 -2 -30 0 -10 3 -4 5 12 5 17 0 24 -2 18 -5z m-1865
-29 c-10 -22 -53 -54 -73 -54 -14 0 28 62 48 70 34 14 37 12 25 -16z m112 21
c0 -3 -25 -36 -56 -74 l-56 -68 -137 -37 c-75 -20 -224 -60 -331 -90 -107 -29
-214 -57 -237 -61 -68 -11 -49 8 25 26 37 9 196 51 353 94 l286 77 53 62 c47
55 70 73 93 75 4 1 7 -1 7 -4z m1903 -2 c-13 -2 -35 -2 -50 0 -16 2 -5 4 22 4
28 0 40 -2 28 -4z m-1843 -58 c-22 -45 -52 -71 -70 -60 -11 7 44 91 68 104 26
15 26 6 2 -44z m2228 48 c-42 -2 -114 -2 -160 0 -46 1 -11 3 77 3 88 0 125 -2
83 -3z m724 -10 c-95 -2 -248 -2 -340 0 -92 1 -14 3 173 3 187 0 262 -2 167
-3z m1193 -12 c-10 -9 -662 -24 -653 -15 3 3 145 9 314 13 170 4 318 9 329 9
11 1 15 -2 10 -7z m-4555 -24 c0 -2 -14 -16 -32 -33 l-32 -29 25 32 c20 27 39
41 39 30z m745 -18 c-82 -4 -185 -9 -227 -12 -43 -2 -78 0 -78 4 0 10 97 15
300 16 l155 0 -150 -8z m-885 -69 c-6 -11 -16 -20 -22 -20 -6 0 -4 10 6 25 9
13 17 35 17 47 2 20 3 19 6 -4 2 -15 -1 -36 -7 -48z m1133 63 c-13 -2 -35 -2
-50 0 -16 2 -5 4 22 4 28 0 40 -2 28 -4z m-1208 -33 c-3 -6 -21 -17 -38 -26
l-32 -15 30 25 c30 26 51 34 40 16z m-216 -58 c1 -7 -3 -10 -9 -7 -5 3 -10 18
-9 33 0 24 1 25 9 7 5 -11 9 -26 9 -33z m-102 6 c-3 -7 -5 -2 -5 12 0 14 2 19
5 13 2 -7 2 -19 0 -25z m180 12 c1 -11 -2 -18 -8 -15 -11 7 -12 35 -1 35 4 0
8 -9 9 -20z m293 5 c0 -8 -7 -15 -15 -15 -16 0 -20 12 -8 23 11 12 23 8 23 -8z
m1693 -2 c-13 -2 -33 -2 -45 0 -13 2 -3 4 22 4 25 0 35 -2 23 -4z m6258 -12
c30 -10 83 -33 119 -51 66 -33 183 -110 177 -116 -6 -6 -344 163 -351 175 -9
14 -8 14 55 -8z m-5403 2 c-21 -2 -57 -2 -80 0 -24 2 -7 4 37 4 44 0 63 -2 43
-4z m-3458 -13 c-52 -4 -129 -7 -170 -7 l-75 1 70 6 c39 4 115 7 170 7 l100 0
-95 -7z m9962 -160 c54 -20 191 -110 256 -167 l42 -38 -6 -152 c-4 -84 -11
-153 -15 -153 -4 0 -33 23 -64 51 -69 64 -195 229 -237 312 -26 52 -68 160
-68 174 0 5 29 -3 92 -27z m41 -312 c62 -79 159 -192 217 -253 97 -101 170
-192 170 -212 0 -4 -17 17 -37 47 -20 30 -83 102 -139 160 -101 104 -354 415
-353 435 0 6 7 0 16 -12 8 -13 65 -87 126 -165z m-363 152 c-8 -5 -19 -10 -25
-10 -5 0 -3 5 5 10 8 5 20 10 25 10 6 0 3 -5 -5 -10z m-175 -40 c3 -5 1 -10
-4 -10 -6 0 -11 5 -11 10 0 6 2 10 4 10 3 0 8 -4 11 -10z m50 -135 c5 -27 4
-27 -14 9 -25 47 -26 56 -7 36 8 -8 17 -28 21 -45z m907 -49 c15 -21 28 -44
28 -50 0 -6 -10 5 -21 24 -12 19 -33 48 -48 65 -14 16 -17 23 -7 15 11 -8 32
-33 48 -54z m-867 -171 c18 -39 62 -114 96 -166 112 -170 171 -318 168 -424
-2 -49 -2 -49 -9 15 -12 121 -61 235 -180 420 -89 139 -121 209 -126 280 l-3
55 10 -54 c5 -30 25 -87 44 -126z m153 151 c37 -19 195 -183 216 -223 26 -51
22 -66 -16 -60 -18 3 -84 11 -146 18 l-113 12 -24 42 c-28 46 -58 130 -69 188
l-7 37 66 0 c37 0 78 -6 93 -14z m762 -90 c0 -26 -6 -18 -14 19 -5 22 -4 26 4
15 5 -8 10 -24 10 -34z m-1095 25 c-13 -11 -107 -42 -112 -37 -2 2 22 13 54
24 69 24 70 24 58 13z m1102 -223 c-2 -35 -3 -9 -3 57 0 66 1 94 3 63 2 -32 2
-86 0 -120z m-1077 -54 c22 -27 40 -53 39 -59 0 -5 -8 1 -17 15 -9 14 -39 50
-67 80 -27 29 -38 45 -22 33 15 -12 45 -43 67 -69z m502 -169 c34 -4 65 -15
77 -26 25 -23 25 -22 6 -58 -12 -24 -102 -87 -111 -78 -4 4 -74 168 -74 174 0
3 10 3 23 0 12 -3 48 -9 79 -12z"/>
<path d="M2379 4430 c-15 -8 -73 -145 -94 -220 l-8 -25 23 20 c35 31 65 83 94
163 26 72 23 84 -15 62z"/>
<path d="M2216 4338 c-18 -28 -36 -101 -35 -148 l0 -35 23 27 c34 38 62 178
36 178 -5 0 -16 -10 -24 -22z"/>
<path d="M2012 4299 c-12 -18 -11 -24 1 -36 13 -14 17 -12 32 10 17 27 13 47
-8 47 -7 0 -18 -10 -25 -21z"/>
<path d="M915 4160 c-59 -60 -196 -127 -286 -140 -121 -17 -134 -27 -77 -56
62 -32 211 0 313 68 52 34 105 108 105 145 0 32 -10 29 -55 -17z"/>
</g>
</svg>
