<?xml version="1.0" standalone="no"?>
<!DOCTYPE svg PUBLIC "-//W3C//DTD SVG 20010904//EN"
 "http://www.w3.org/TR/2001/REC-SVG-20010904/DTD/svg10.dtd">
<svg version="1.0" xmlns="http://www.w3.org/2000/svg"
 width="18px" height="18px" viewBox="0 0 646.000000 1280.000000"
 preserveAspectRatio="xMidYMid meet">
<metadata>
Created by potrace 1.15, written by Peter Selinger 2001-2017
</metadata>
<g transform="translate(0.000000,1280.000000) scale(0.100000,-0.100000)"
fill="#000000" stroke="none">
<path d="M3146 12589 c-91 -15 -162 -48 -221 -105 -67 -64 -99 -131 -120 -252
-21 -115 -33 -337 -23 -409 4 -32 12 -85 16 -118 10 -70 45 -145 73 -152 16
-5 19 -15 19 -77 0 -39 4 -76 8 -82 4 -6 39 -28 79 -48 l72 -38 1 -46 c0 -26
1 -56 1 -67 1 -11 -2 -53 -5 -92 -3 -41 -2 -73 3 -73 5 0 8 -26 8 -57 -2 -47
-6 -62 -24 -76 -27 -22 -29 -42 -6 -56 24 -13 14 -21 -33 -25 -69 -5 -178 -86
-215 -158 -17 -34 -48 -53 -75 -47 -5 1 -17 -1 -27 -6 -10 -4 -57 -3 -105 4
-48 6 -144 14 -215 17 -112 6 -127 5 -122 -8 5 -12 0 -14 -20 -10 -32 6 -75
-31 -75 -64 0 -14 23 -44 64 -84 67 -65 80 -94 64 -142 l-10 -29 -27 43 c-42
66 -52 71 -124 66 -76 -6 -133 -31 -141 -61 -3 -12 -6 -46 -6 -76 0 -62 -52
-311 -115 -556 -24 -93 -60 -244 -80 -335 -43 -190 -148 -489 -227 -642 -48
-91 -50 -100 -46 -157 4 -55 2 -60 -16 -63 -17 -2 -22 -12 -26 -48 -3 -25 -22
-81 -42 -125 -20 -44 -61 -145 -91 -225 -31 -80 -65 -167 -76 -194 -12 -26
-61 -157 -110 -290 -99 -266 -165 -423 -211 -498 -32 -52 -60 -121 -60 -150 0
-16 11 -18 95 -18 58 0 95 -4 95 -10 0 -6 -10 -8 -24 -4 -13 3 -34 1 -45 -6
-14 -7 -21 -7 -21 0 0 5 -18 10 -40 10 -37 0 -41 -3 -47 -30 l-6 -30 -23 25
c-28 30 -39 31 -61 5 -10 -11 -21 -20 -26 -20 -5 0 -61 -26 -125 -57 -65 -32
-128 -62 -142 -68 -13 -5 -52 -48 -87 -95 -34 -47 -76 -102 -94 -122 -19 -24
-29 -44 -25 -54 5 -13 14 -10 49 21 23 21 50 52 60 70 15 27 136 135 152 135
3 0 16 9 28 20 20 19 134 60 205 73 l32 7 -19 -38 c-28 -54 -59 -92 -150 -188
-44 -46 -81 -91 -81 -98 0 -7 -6 -19 -14 -25 -8 -7 -17 -24 -20 -39 -4 -15
-22 -58 -40 -97 -19 -38 -57 -119 -86 -179 -33 -69 -48 -112 -42 -118 6 -6 21
12 43 49 18 32 33 60 34 63 1 14 68 120 75 120 4 0 10 10 14 23 3 12 23 47 46
76 22 30 40 59 40 64 0 6 7 17 15 26 8 9 48 61 88 116 77 104 145 180 154 171
9 -9 -53 -129 -110 -213 -31 -44 -58 -92 -60 -105 -2 -12 -7 -30 -10 -38 -13
-30 -57 -178 -97 -325 -23 -82 -44 -158 -47 -169 -4 -13 -2 -17 7 -14 7 2 30
47 50 98 20 52 45 111 56 130 10 19 19 40 20 45 2 30 30 107 55 154 15 30 26
58 23 63 -3 5 2 18 12 29 9 11 26 43 36 72 19 53 98 198 126 230 14 16 17 16
24 2 11 -18 -18 -128 -60 -233 -17 -40 -28 -81 -25 -92 3 -11 0 -20 -6 -20 -6
0 -11 -18 -11 -43 0 -23 -7 -67 -15 -97 -9 -30 -24 -102 -35 -159 -11 -58 -24
-121 -30 -140 -13 -46 -13 -81 0 -81 5 0 13 12 16 28 4 15 14 41 23 57 8 17
17 42 18 57 1 14 13 52 25 85 24 64 27 72 34 123 3 19 15 61 26 93 17 46 19
60 9 67 -9 5 -10 13 -3 26 6 11 21 69 33 129 23 118 42 180 61 203 22 25 26
-33 11 -158 -16 -144 -15 -124 -9 -200 3 -36 8 -130 11 -210 6 -137 9 -159 19
-149 3 2 8 126 11 274 4 149 8 272 10 275 2 3 6 53 10 111 5 74 4 109 -4 113
-15 10 -14 47 2 43 8 -1 12 10 12 33 0 27 5 37 23 45 15 7 22 18 22 39 0 100
317 1001 438 1246 72 146 127 213 216 265 41 24 46 31 42 54 -26 128 -47 292
-48 371 -1 82 4 117 40 250 67 255 189 666 238 805 45 127 48 131 113 193 56
53 66 60 69 43 2 -11 12 -23 22 -26 18 -6 40 -33 71 -90 16 -29 15 -31 -7 -61
-23 -29 -24 -35 -15 -99 8 -52 7 -72 -4 -89 -24 -38 -27 -81 -9 -125 12 -32
14 -48 6 -69 -18 -46 -24 -136 -11 -168 6 -16 13 -75 15 -132 3 -79 8 -114 25
-150 16 -35 21 -63 20 -108 -4 -89 17 -181 49 -218 25 -29 27 -38 29 -131 1
-54 7 -105 13 -112 5 -7 25 -15 42 -19 30 -5 34 -10 42 -52 10 -50 34 -70 34
-28 0 15 7 42 15 62 53 127 423 493 483 478 16 -5 21 -16 24 -62 6 -68 1 -87
-17 -72 -15 12 -52 -20 -149 -134 -34 -39 -89 -87 -127 -112 -63 -40 -89 -67
-89 -93 0 -42 129 39 233 147 45 46 93 90 109 98 31 16 41 18 34 5 -4 -5 -1
-32 6 -60 6 -28 8 -54 5 -58 -4 -3 -24 -9 -44 -12 -30 -5 -39 -11 -41 -29 -3
-21 -1 -22 38 -16 l41 7 -6 -64 c-9 -86 -10 -89 -42 -89 -36 -1 -65 -23 -57
-44 4 -11 18 -16 43 -16 l36 0 0 -65 c0 -64 0 -64 -30 -67 -26 -3 -30 -7 -30
-32 0 -24 6 -31 35 -41 31 -10 35 -15 32 -43 -8 -75 -16 -87 -60 -93 -83 -11
-80 -51 4 -70 62 -14 67 -26 29 -71 -14 -16 -23 -33 -20 -38 8 -13 -18 -28
-55 -32 -54 -5 -48 -36 13 -68 46 -24 48 -26 42 -60 -4 -19 -8 -36 -9 -38 -2
-1 -16 4 -32 13 -16 8 -37 15 -46 15 -33 0 -48 12 -48 41 0 37 -44 86 -123
137 -54 35 -74 41 -157 52 -83 11 -102 10 -151 -4 -68 -20 -117 -67 -130 -125
-10 -46 3 -83 46 -131 41 -47 74 -122 105 -237 16 -64 30 -124 30 -134 0 -10
9 -33 20 -51 21 -35 25 -50 13 -46 -5 2 -22 -3 -39 -10 -36 -15 -60 -61 -68
-135 -3 -26 -11 -57 -17 -69 -11 -20 -12 -19 -41 16 -47 57 -65 63 -98 31 -19
-18 -33 -45 -39 -77 -19 -86 -13 -141 24 -240 62 -167 72 -274 100 -1053 21
-595 21 -963 -1 -1106 -9 -63 -25 -130 -34 -149 -19 -39 -40 -126 -40 -168 0
-45 19 -98 45 -126 l24 -26 -33 0 c-42 0 -49 -9 -69 -96 -15 -64 -15 -76 -2
-120 22 -72 33 -225 40 -534 3 -151 10 -315 15 -365 17 -156 30 -415 22 -438
-5 -12 -3 -80 3 -152 14 -163 9 -465 -10 -570 -25 -142 -26 -151 -12 -184 l13
-31 22 23 c12 12 27 37 33 54 7 22 17 31 30 30 24 -2 24 -12 1 -29 -10 -7 -31
-49 -47 -93 -28 -77 -36 -153 -39 -336 0 -30 -3 -35 -21 -31 -19 3 -22 -5 -38
-135 -27 -214 -62 -396 -80 -424 -9 -14 -14 -29 -10 -32 3 -4 7 -33 8 -64 1
-64 12 -113 26 -113 8 0 14 60 11 103 -1 10 5 28 13 41 9 13 22 75 30 137 16
129 39 247 50 257 5 4 5 -4 2 -18 -4 -14 -12 -101 -17 -195 -6 -93 -14 -177
-17 -185 -3 -8 -7 -31 -9 -50 -1 -19 -5 -54 -8 -77 -4 -37 -2 -43 13 -43 19 0
35 44 32 87 -2 13 4 32 13 44 11 16 13 40 9 102 -6 96 12 301 33 375 9 28 16
52 17 52 7 0 4 -571 -3 -595 -5 -16 -14 -57 -20 -90 -7 -33 -14 -70 -17 -82
-3 -14 0 -23 6 -23 13 0 32 42 37 83 2 15 11 41 19 57 8 16 15 39 15 51 0 12
6 30 14 38 12 14 12 33 0 131 -7 63 -13 158 -14 210 0 94 24 267 39 283 5 5
11 -27 15 -70 4 -43 9 -98 11 -123 11 -102 14 -400 4 -406 -5 -3 -9 -13 -8
-22 2 -10 -1 -33 -6 -52 -4 -19 -9 -48 -11 -65 -1 -16 -9 -54 -18 -84 -15 -52
-14 -71 4 -71 11 0 50 86 50 109 0 9 7 27 16 39 10 15 13 32 9 53 -5 23 -2 36
12 52 22 25 22 20 -1 258 -25 272 -25 439 3 439 10 0 83 -518 81 -586 0 -32 2
-74 6 -92 4 -20 0 -56 -11 -93 -9 -33 -14 -67 -11 -75 3 -9 -1 -29 -9 -45 -18
-34 -13 -49 16 -49 13 0 25 11 34 33 7 18 23 41 34 51 16 15 21 31 21 69 0 34
6 57 17 70 17 18 17 19 -1 29 -17 9 -17 11 3 25 26 18 26 36 2 71 -25 34 -40
152 -52 395 -4 100 -10 224 -13 274 -2 51 0 95 5 98 17 11 10 71 -10 89 -15
14 -18 27 -14 54 10 79 26 148 35 159 16 19 5 87 -36 223 -53 176 -59 273 -60
1090 l-1 695 58 147 c31 81 57 158 57 172 0 14 -10 33 -25 44 -28 22 -34 48
-9 38 9 -4 32 -1 50 6 27 10 37 21 49 57 13 42 13 52 -4 116 -29 110 -37 122
-95 159 -65 42 -58 5 -85 486 -22 396 -36 888 -36 1300 0 248 2 288 17 310 27
42 32 87 12 118 -26 40 -33 212 -10 248 14 20 23 24 41 20 17 -4 32 1 52 18
l27 24 43 -104 c54 -133 84 -177 133 -199 98 -44 243 16 312 130 33 54 33 54
84 55 l50 0 41 -62 c51 -81 124 -127 210 -135 113 -10 165 42 239 237 15 41
29 76 30 78 1 2 14 -8 29 -22 19 -18 34 -24 51 -20 17 4 27 -1 39 -20 24 -36
18 -210 -8 -249 -19 -29 -14 -76 12 -117 14 -21 16 -71 15 -380 -1 -430 -18
-1029 -39 -1355 -21 -342 -16 -320 -80 -360 -57 -37 -69 -59 -99 -177 -18 -76
-4 -125 45 -151 19 -10 42 -16 52 -13 25 6 21 -13 -8 -36 -14 -11 -25 -29 -25
-40 0 -11 25 -86 56 -166 l55 -147 11 -200 c11 -210 -4 -1193 -22 -1385 -5
-56 -23 -144 -44 -216 -46 -159 -52 -195 -33 -225 8 -13 20 -59 26 -101 12
-73 11 -78 -10 -107 -17 -23 -20 -36 -14 -58 17 -57 6 -393 -20 -637 -12 -113
-19 -144 -35 -161 -26 -27 -25 -50 1 -68 20 -14 20 -16 3 -25 -17 -10 -17 -12
-2 -29 9 -10 18 -42 21 -71 3 -35 12 -61 25 -75 11 -12 25 -34 31 -49 8 -21
17 -28 37 -28 23 0 25 3 19 23 -4 12 -11 49 -16 82 -5 33 -14 72 -20 87 -6 15
-9 45 -5 65 3 21 8 81 10 133 3 52 14 151 25 220 11 69 25 168 31 220 16 126
18 132 37 95 18 -33 14 -158 -13 -445 -19 -198 -19 -221 2 -237 12 -9 15 -21
10 -45 -4 -23 -1 -40 9 -53 8 -11 15 -29 15 -39 0 -24 41 -116 51 -116 21 0
18 29 -22 200 -5 25 -10 52 -10 60 -1 8 -3 22 -6 30 -15 41 8 566 26 598 5 8
15 -29 26 -90 15 -84 17 -130 11 -253 -4 -82 -10 -172 -15 -200 -6 -36 -5 -57
4 -75 7 -14 23 -59 35 -100 28 -95 43 -130 54 -130 4 0 6 11 2 24 -3 13 -10
56 -16 96 -6 40 -14 77 -18 84 -4 6 -7 141 -7 299 0 248 2 284 13 256 22 -54
43 -247 40 -371 -2 -83 1 -121 10 -130 6 -6 12 -24 12 -39 0 -56 12 -89 32
-89 18 0 19 5 14 48 -4 26 -8 61 -10 77 -1 17 -4 32 -5 35 -3 5 -4 13 -22 245
-6 83 -13 155 -16 160 -4 7 -3 7 4 0 12 -12 38 -145 53 -275 6 -52 18 -105 25
-117 8 -12 14 -30 13 -40 -3 -41 3 -103 10 -103 15 0 34 70 31 113 -2 24 1 48
5 55 4 7 1 24 -9 38 -18 28 -85 410 -85 489 0 61 -11 80 -40 72 -16 -4 -19 -2
-11 7 7 8 7 26 0 56 -6 24 -10 81 -10 125 -1 62 -8 101 -32 173 -19 56 -38 97
-49 103 -23 12 -23 24 0 26 13 1 24 -11 35 -36 10 -21 25 -45 35 -55 18 -15
19 -14 32 24 11 34 10 53 -7 147 -18 92 -25 212 -27 408 0 17 4 91 9 165 5 74
8 149 6 165 -8 82 7 383 19 400 4 6 10 123 14 260 13 494 17 561 33 640 23
113 23 131 6 184 -24 71 -28 76 -65 79 l-35 3 28 30 c16 17 31 46 35 66 10 53
-3 145 -30 215 -51 129 -59 246 -52 743 3 248 8 461 10 475 2 14 7 122 11 240
15 518 35 706 90 853 37 99 42 141 30 226 -5 40 -15 63 -39 89 -28 30 -35 33
-54 23 -12 -6 -33 -27 -48 -46 -25 -33 -28 -34 -39 -17 -7 10 -16 40 -20 67
-10 80 -32 121 -75 140 l-37 17 18 36 c10 21 30 90 45 155 30 129 61 201 125
288 37 51 41 60 34 97 -3 22 -20 58 -37 80 -25 33 -41 43 -95 57 -58 16 -74
16 -156 5 -74 -11 -103 -20 -147 -48 -83 -52 -118 -89 -125 -133 -6 -32 -12
-40 -33 -45 -15 -3 -42 -12 -60 -20 -43 -18 -40 -20 -44 24 -3 35 0 39 42 62
59 33 62 64 7 68 -31 3 -39 8 -51 35 -7 18 -20 38 -29 46 -33 27 -20 46 41 61
45 12 58 20 60 36 3 23 -19 34 -69 34 -21 0 -28 7 -37 39 -21 70 -17 86 27
100 36 10 39 13 32 39 -6 21 -14 28 -39 30 -33 3 -37 12 -23 47 4 11 5 34 0
52 -7 33 -7 33 31 33 26 0 40 5 44 16 8 21 -21 43 -57 44 -32 0 -34 4 -41 89
l-5 63 40 -5 c37 -5 40 -3 37 16 -2 17 -12 23 -41 28 -20 3 -40 8 -43 11 -3 3
0 33 7 66 l13 61 25 -14 c14 -7 59 -47 100 -90 72 -74 197 -165 226 -165 23 0
18 34 -7 57 -13 11 -48 36 -79 55 -30 20 -82 66 -115 104 -108 125 -133 148
-148 135 -19 -16 -24 2 -18 71 3 45 8 57 24 61 31 8 140 -75 260 -198 145
-149 216 -243 238 -313 18 -57 18 -57 29 -29 6 16 11 39 11 52 0 18 7 24 34
29 52 10 59 25 60 137 1 93 3 102 24 120 30 24 51 110 52 210 0 49 6 87 16
108 20 40 38 164 31 215 -4 26 0 50 10 70 12 23 14 45 8 100 -4 39 -11 77 -17
83 -7 9 -5 27 6 60 20 60 20 81 -2 122 -15 28 -16 43 -8 97 9 59 8 65 -16 96
l-25 33 34 57 c18 31 42 59 52 63 11 3 21 15 23 26 3 17 13 10 71 -43 65 -61
68 -67 107 -177 45 -128 90 -276 179 -586 123 -433 126 -456 87 -681 -14 -84
-26 -163 -26 -177 0 -20 14 -35 63 -70 34 -25 72 -55 84 -68 36 -40 122 -197
168 -308 139 -338 375 -1037 375 -1111 0 -23 6 -33 25 -42 20 -9 24 -17 22
-47 -1 -24 2 -35 11 -34 14 3 16 -28 3 -42 -6 -6 -6 -59 -1 -130 5 -66 12
-237 16 -380 3 -143 8 -262 10 -264 10 -10 13 12 18 144 4 77 11 158 16 180 6
25 5 44 -1 52 -7 8 -7 18 0 31 7 13 7 30 0 53 -15 51 -24 269 -12 269 19 0 41
-62 68 -190 15 -69 31 -136 36 -149 6 -14 6 -27 1 -30 -9 -6 16 -110 64 -266
13 -44 26 -92 28 -106 2 -15 11 -40 19 -55 8 -16 17 -41 21 -56 4 -16 13 -28
22 -28 13 0 15 6 9 28 -4 15 -11 43 -15 62 -5 19 -10 44 -13 55 -3 11 -10 54
-17 95 -7 41 -18 89 -25 105 -7 17 -16 62 -20 100 -4 39 -10 74 -13 79 -3 5
-6 21 -7 35 -1 14 -15 55 -30 90 -38 89 -65 190 -56 213 6 18 8 18 28 -4 29
-32 133 -231 133 -255 0 -11 9 -28 20 -38 11 -10 19 -23 17 -29 -2 -6 11 -41
29 -77 30 -59 41 -93 47 -139 1 -8 10 -26 19 -40 19 -28 51 -99 52 -115 1 -6
8 -28 18 -50 9 -22 19 -48 22 -57 8 -27 29 -22 23 5 -30 124 -120 430 -143
487 -4 8 -8 26 -10 39 -2 14 -13 39 -26 55 -74 100 -156 251 -144 263 13 14
190 -204 261 -322 21 -34 57 -89 107 -162 16 -23 41 -66 57 -95 46 -87 72
-128 82 -128 5 0 9 2 9 5 0 5 -128 287 -179 395 -31 65 -51 93 -114 157 -69
71 -105 117 -146 186 l-23 38 28 -6 c136 -29 181 -48 274 -119 56 -42 103 -86
115 -107 28 -50 109 -118 113 -95 2 9 -8 31 -23 49 -14 17 -55 73 -91 122 -60
83 -70 92 -127 115 -34 14 -96 45 -138 68 -42 23 -84 42 -93 42 -9 0 -16 4
-16 10 0 14 -36 31 -54 24 -8 -3 -18 -14 -21 -25 -9 -28 -23 -23 -27 9 -3 24
-7 27 -45 30 -26 2 -43 -1 -43 -8 0 -8 -6 -8 -21 0 -11 7 -32 9 -45 6 -14 -4
-24 -2 -24 4 0 6 37 10 95 10 94 0 95 0 95 24 0 29 -29 98 -63 152 -38 61
-120 253 -185 434 -33 91 -79 212 -102 270 -23 58 -70 179 -105 270 -35 91
-78 197 -95 235 -18 39 -36 90 -39 115 -5 37 -10 46 -29 48 -12 2 -19 8 -16
14 4 6 6 33 5 60 0 39 -13 75 -55 162 -71 146 -179 445 -206 571 -12 55 -52
226 -90 380 -103 421 -120 504 -120 576 0 37 -5 72 -12 82 -26 34 -153 60
-203 41 -9 -4 -31 -29 -49 -56 l-34 -49 -9 28 c-16 52 -5 78 68 147 38 37 69
73 69 81 0 27 -53 66 -83 62 -21 -3 -27 0 -22 11 5 13 -11 14 -122 8 -71 -3
-167 -12 -214 -18 -47 -6 -95 -8 -105 -3 -10 4 -23 7 -28 6 -25 -6 -55 12 -66
38 -21 51 -173 176 -206 170 -25 -4 -64 2 -64 11 0 6 7 10 15 10 23 0 18 36
-7 57 -19 15 -23 27 -22 71 1 29 4 55 6 58 3 2 4 66 2 143 l-3 138 74 39 c41
21 77 46 79 54 3 8 6 44 8 80 2 53 7 67 23 75 27 14 57 78 66 140 4 28 12 78
18 113 13 72 0 314 -24 441 -32 164 -116 269 -254 317 -76 26 -185 36 -265 23z
m-88 -1869 c3 -24 1 -25 -63 -27 -37 0 -78 -4 -92 -8 -40 -10 -23 17 27 43 30
15 58 22 85 20 34 -3 40 -7 43 -28z m463 19 c34 -12 69 -36 69 -49 0 -3 -30
-3 -67 2 -38 5 -78 6 -90 3 -19 -4 -23 -1 -23 18 0 13 3 27 7 30 10 11 67 8
104 -4z m-488 -107 c35 -14 67 -54 67 -83 0 -8 -4 -8 -15 1 -9 8 -48 14 -93
15 -42 2 -89 3 -103 4 -22 1 -28 7 -31 32 -4 27 -1 33 25 44 36 15 97 10 150
-13z m564 12 c22 -6 24 -11 19 -37 -3 -17 -8 -32 -10 -34 -2 -2 -49 -6 -105
-7 -62 -2 -106 -8 -116 -16 -18 -15 -20 -1 -3 35 17 37 131 81 176 69 8 -2 25
-7 39 -10z m-713 -208 c34 -13 70 -27 81 -31 16 -6 4 -13 -55 -31 -41 -13 -75
-22 -76 -21 -6 6 -21 107 -16 107 3 0 33 -11 66 -24z m776 19 c0 -7 -22 -105
-23 -105 -1 0 -36 11 -77 25 -54 18 -69 26 -55 30 11 4 45 17 75 29 54 24 80
30 80 21z m-680 -185 c83 -20 80 -23 -34 -40 -44 -7 -86 -14 -93 -17 -10 -4
-13 7 -13 41 l0 46 33 -7 c17 -3 66 -14 107 -23z m650 -16 c0 -36 -3 -45 -14
-41 -8 3 -52 11 -98 18 -97 14 -114 24 -61 33 21 4 65 13 98 21 33 7 63 14 68
14 4 1 7 -20 7 -45z m-625 -143 l50 -7 -79 -18 c-44 -10 -97 -24 -118 -32
l-38 -13 0 30 c0 21 6 32 23 39 26 10 92 11 162 1z m626 -1 c12 -7 19 -21 19
-40 l0 -30 -37 14 c-21 8 -74 23 -118 33 l-80 18 45 6 c75 10 150 10 171 -1z
m-622 -94 l45 -13 -33 -6 c-19 -4 -68 -7 -110 -7 l-76 1 35 19 c41 23 79 24
139 6z m591 -6 l35 -19 -71 -1 c-39 0 -87 3 -105 7 l-33 6 34 13 c50 18 100
16 140 -6z m-1167 -68 c9 -8 17 -18 17 -21 0 -3 -21 -19 -46 -34 -36 -22 -49
-25 -60 -16 -19 15 -18 28 6 67 17 27 25 32 43 26 12 -3 30 -13 40 -22z m1692
-15 c18 -34 19 -38 4 -53 -17 -16 -29 -11 -108 43 -7 5 23 35 44 43 29 12 38
8 60 -33z m-1015 -6 c0 -5 3 -16 6 -25 3 -9 2 -16 -4 -16 -5 0 -12 11 -14 25
-3 14 -1 25 3 25 5 0 9 -4 9 -9z m262 -16 c-2 -14 -6 -25 -8 -25 -2 0 -4 11
-4 25 0 14 4 25 9 25 4 0 6 -11 3 -25z m-515 -12 c-58 -15 -75 -14 -62 6 3 6
32 11 63 10 l57 -1 -58 -15z m818 6 c12 -19 -1 -20 -61 -5 l-59 14 57 1 c31 1
60 -4 63 -10z m-1159 -81 l16 -31 -27 7 c-15 4 -42 13 -59 20 l-31 14 35 15
c40 18 45 16 66 -25z m459 33 c3 -5 19 -12 35 -16 17 -4 30 -10 30 -15 0 -10
-200 -60 -240 -60 -25 0 -31 4 -28 17 4 21 41 41 123 64 73 21 72 21 80 10z
m631 -20 c82 -28 109 -45 98 -63 -3 -4 -19 -8 -36 -8 -38 0 -238 51 -238 61 0
4 13 10 30 14 16 4 32 11 35 16 9 13 15 12 111 -20z m439 -1 c5 -8 -93 -46
-100 -38 -2 2 5 18 16 35 18 29 22 31 50 21 16 -5 31 -14 34 -18z m-1627 -85
c22 -6 21 -8 -20 -40 -47 -36 -54 -36 -69 2 -8 21 -6 30 12 49 19 21 25 22 38
10 9 -7 26 -17 39 -21z m1722 -44 c-7 -17 -14 -31 -17 -31 -2 0 -25 16 -49 35
-45 34 -45 34 -20 41 14 3 31 13 37 21 11 12 16 11 37 -11 23 -22 24 -27 12
-55z m-1115 20 c-6 -5 -50 -21 -100 -36 -49 -14 -144 -47 -210 -72 -132 -49
-186 -53 -272 -18 -65 26 -57 42 52 93 58 27 106 23 142 -10 21 -20 24 -20 41
-5 14 13 39 17 98 18 43 0 113 9 154 19 90 21 107 23 95 11z m511 -11 c49 -11
126 -20 170 -20 61 0 85 -4 94 -15 12 -14 15 -14 34 4 38 36 85 36 158 2 93
-44 99 -55 49 -81 -22 -11 -67 -23 -99 -26 -52 -6 -70 -2 -173 36 -63 23 -159
56 -214 72 -55 16 -104 34 -109 39 -13 12 -14 12 90 -11z m-556 -69 c0 -11
-150 -75 -158 -67 -7 8 -9 6 73 43 79 35 85 37 85 24z m603 -27 c37 -16 67
-31 67 -36 0 -9 -14 -5 -97 29 -35 15 -63 30 -63 36 0 5 6 7 13 4 6 -4 42 -18
80 -33z m-508 -44 c0 -18 -10 -27 -42 -41 -42 -18 -43 -18 -43 1 0 20 58 72
75 67 6 -2 10 -14 10 -27z m372 4 c18 -14 33 -34 33 -44 0 -19 -1 -19 -40 -1
-51 23 -53 25 -45 50 8 27 11 26 52 -5z m-1057 -45 c47 -43 48 -42 -14 -76
-28 -14 -30 -14 -43 3 -22 30 -27 64 -13 90 8 13 16 24 19 24 3 -1 26 -19 51
-41z m1764 16 c16 -24 16 -28 0 -60 -21 -46 -28 -49 -61 -31 -60 33 -60 32
-13 75 25 22 48 40 51 41 4 0 14 -11 23 -25z m-1269 -65 c0 -7 -43 -32 -95
-54 -52 -23 -126 -58 -164 -78 -50 -27 -77 -36 -95 -31 -40 9 -134 64 -124 74
27 26 165 67 248 74 50 3 117 12 150 20 68 15 80 14 80 -5z m795 1 c25 -5 86
-12 135 -16 85 -7 236 -52 250 -75 6 -10 -88 -65 -127 -74 -21 -5 -39 1 -70
20 -48 30 -185 95 -240 113 -21 7 -40 17 -43 22 -10 16 5 29 28 24 12 -3 42
-9 67 -14z m-790 -81 c0 -20 -39 -48 -89 -65 -29 -9 -55 -15 -57 -12 -5 5 124
86 139 87 4 0 7 -4 7 -10z m780 -35 c81 -49 82 -53 1 -29 -50 15 -91 43 -91
64 0 16 11 12 90 -35z m-590 2 c0 -13 -14 -36 -32 -54 -35 -32 -102 -83 -110
-83 -7 0 53 123 70 143 8 9 28 17 44 17 23 0 28 -4 28 -23z m387 1 c13 -12 23
-25 23 -30 0 -4 11 -31 25 -60 14 -28 24 -52 22 -54 -1 -1 -33 24 -72 55 -50
41 -71 65 -73 84 -3 24 0 27 24 27 15 0 38 -10 51 -22z m-1023 -120 c10 -8
-50 -78 -66 -78 -4 0 -19 20 -33 44 -24 41 -27 75 -8 109 4 6 49 -26 107 -75z
m1701 43 c6 -30 -22 -102 -46 -116 -6 -4 -26 10 -46 31 l-35 39 23 15 c13 8
37 27 54 42 34 30 41 29 50 -11z m-1059 -16 c-11 -8 -25 -15 -30 -15 -6 0 -2
7 8 15 11 8 25 15 30 15 6 0 2 -7 -8 -15z m324 0 c14 -16 10 -18 -14 -9 -9 3
-16 10 -16 15 0 14 16 11 30 -6z m-530 -6 c0 -20 -41 -79 -51 -73 -16 9 -10
62 9 73 23 14 42 14 42 0z m756 3 c19 -12 25 -59 10 -71 -11 -9 -18 -4 -35 24
-11 20 -21 40 -21 46 0 11 30 12 46 1z m-898 -72 c10 -27 8 -33 -21 -64 -21
-21 -52 -40 -89 -51 -55 -18 -60 -18 -122 -1 -36 10 -66 24 -66 30 0 7 15 25
33 42 67 62 72 64 103 56 18 -5 46 -4 74 4 69 18 77 17 88 -16z m316 -16 c26
-6 36 -30 35 -79 -1 -27 -3 -26 -15 13 -2 8 -18 -2 -42 -26 -22 -22 -70 -60
-108 -84 -38 -25 -97 -71 -131 -103 -53 -48 -63 -53 -63 -35 0 36 78 166 123
203 23 19 69 62 102 96 53 53 61 58 67 41 4 -11 18 -22 32 -26z m507 -57 c72
-70 118 -125 148 -175 61 -104 51 -117 -34 -42 -38 34 -99 80 -135 104 -36 23
-82 60 -102 81 l-37 38 -9 -34 -10 -34 -1 30 c-1 50 10 75 40 91 16 8 29 21
29 29 0 8 1 15 3 15 1 0 50 -46 108 -103z m258 89 c37 -10 61 -12 78 -5 21 8
32 4 64 -19 21 -16 48 -41 60 -55 l20 -27 -28 -11 c-81 -30 -107 -33 -169 -14
-88 28 -128 76 -108 129 7 19 15 20 83 2z m-1285 -226 c19 -1 19 -2 -7 -21
-15 -12 -39 -41 -53 -65 -14 -24 -28 -44 -31 -44 -45 0 -78 100 -54 163 l10
25 57 -29 c31 -16 66 -29 78 -29z m1556 -10 c0 -51 -18 -98 -42 -111 -22 -12
-25 -10 -53 42 -8 15 -27 37 -43 51 l-28 24 58 18 c31 10 63 25 70 33 10 13
14 13 25 -3 7 -10 13 -34 13 -54z m-1406 -34 c-3 -8 -30 -31 -61 -51 -67 -45
-66 -32 2 24 53 43 68 50 59 27z m1165 -28 c28 -23 51 -45 51 -50 0 -11 -78
42 -104 71 -32 35 -2 23 53 -21z m-1196 -104 c17 -18 -91 -178 -128 -188 -33
-9 -63 5 -73 32 -12 37 23 112 52 112 12 1 41 12 66 25 45 24 71 30 83 19z
m1247 -19 c27 -14 58 -25 69 -25 14 0 27 -14 42 -41 17 -35 19 -46 9 -69 -13
-32 -50 -46 -80 -30 -31 16 -120 140 -120 166 0 31 18 30 80 -1z m-2446 -612
c-36 -148 -376 -1169 -396 -1188 -21 -20 3 128 39 239 19 61 91 255 158 431
67 176 132 352 144 390 31 98 52 155 57 155 2 0 1 -12 -2 -27z m3612 -108 c20
-60 94 -261 164 -445 71 -184 140 -374 154 -421 29 -93 46 -232 28 -214 -16
16 -293 836 -362 1076 -44 154 -43 146 -31 129 6 -8 27 -64 47 -125z m-2141
-710 c15 -38 35 -98 46 -132 21 -68 31 -77 97 -88 37 -6 46 -12 57 -39 25 -58
24 -60 -30 -67 -63 -8 -138 18 -213 73 -58 43 -64 53 -82 150 -14 78 -3 114
44 137 16 7 31 22 34 33 7 27 17 13 47 -67z m706 32 c50 -25 56 -69 29 -192
-10 -42 -19 -56 -60 -88 -69 -53 -162 -86 -223 -78 -26 3 -48 8 -49 11 -1 3 5
24 15 47 15 38 20 42 61 48 25 4 52 12 61 19 8 6 35 68 59 138 54 154 55 157
71 129 6 -12 22 -28 36 -34z m-521 -83 c0 -7 -5 -16 -11 -20 -17 -10 -32 12
-24 36 5 17 10 19 21 9 8 -6 14 -17 14 -25z m284 -17 c-29 -16 -46 17 -22 41
10 10 15 7 24 -10 10 -19 10 -25 -2 -31z m-7 -93 c-9 -9 -28 6 -21 18 4 6 10
6 17 -1 6 -6 8 -13 4 -17z m-282 6 c-3 -5 -10 -10 -16 -10 -5 0 -9 5 -9 10 0
6 7 10 16 10 8 0 12 -4 9 -10z m531 -242 c-15 -125 -92 -209 -165 -178 -59 24
-68 100 -18 148 25 24 150 86 186 91 2 1 0 -27 -3 -61z m-722 30 c75 -26 136
-80 136 -120 0 -53 -38 -98 -83 -98 -25 0 -88 52 -106 88 -20 41 -34 152 -18
152 6 0 37 -10 71 -22z m-1854 -94 c0 -14 -3 -14 -15 -4 -8 7 -15 14 -15 16 0
2 7 4 15 4 8 0 15 -7 15 -16z m4380 7 c0 -5 -7 -11 -15 -15 -9 -3 -15 0 -15 9
0 8 7 15 15 15 8 0 15 -4 15 -9z m-4426 -26 c-4 -8 -13 -15 -21 -15 -13 0 -13
3 -3 15 7 8 16 15 21 15 5 0 6 -7 3 -15z m4465 6 c12 -8 11 -13 -10 -29 -27
-22 -39 -21 -20 2 7 8 10 20 6 26 -8 12 5 13 24 1z m-4568 -52 l-9 -34 -1 31
c-1 17 2 34 6 37 12 13 14 -1 4 -34z m4658 4 c-1 -37 -1 -37 -8 -8 -7 28 -5
45 5 45 2 0 3 -17 3 -37z m-4599 -63 c0 -5 -4 -10 -9 -10 -6 0 -13 5 -16 10
-3 6 1 10 9 10 9 0 16 -4 16 -10z m4560 0 c-19 -13 -30 -13 -30 0 0 6 10 10
23 10 18 0 19 -2 7 -10z m-3160 -3555 c6 -137 18 -347 26 -465 18 -241 16
-701 -4 -735 -8 -15 -11 32 -12 189 0 115 -2 212 -5 216 -2 4 -5 63 -6 131 -1
68 -6 165 -10 214 -5 50 -10 117 -13 150 -11 121 -19 792 -10 840 9 53 7 78
34 -540z m1770 249 c0 -165 -3 -339 -5 -389 -4 -81 -7 -123 -20 -290 -12 -149
-19 -348 -25 -730 -1 -50 -3 -56 -11 -36 -19 49 -22 434 -5 696 22 328 46 833
46 965 0 74 3 101 11 93 7 -7 10 -109 9 -309z"/>
</g>
</svg>
