<?xml version="1.0" encoding="utf-8"?>
<!-- Svg Vector Icons : http://www.onlinewebfonts.com/icon -->
<!DOCTYPE svg PUBLIC "-//W3C//DTD SVG 1.1//EN" "http://www.w3.org/Graphics/SVG/1.1/DTD/svg11.dtd">
<svg version="1.1" xmlns="http://www.w3.org/2000/svg" xmlns:xlink="http://www.w3.org/1999/xlink" x="0px" y="0px" viewBox="0 0 256 256" enable-background="new 0 0 256 256" xml:space="preserve">
<metadata> Svg Vector Icons : http://www.onlinewebfonts.com/icon </metadata>
<g><g><g><path fill="#000000" d="M10,92.9v83.2h63.1c49.8,0,63.3,0.2,63.7,0.7c0.3,0.4,3.8,8.7,7.7,18.4c3.9,9.7,7.8,18.7,8.8,20c3.8,5.5,10,10,16.4,12c2.4,0.7,4.2,1.6,4.8,2.4c0.5,0.6,1.9,4.2,3.1,7.8c1.3,3.6,2.6,7,3,7.7c0.6,1.1,1.3,1.2,27.5,1.2c23.5,0,27-0.1,27-0.9c0-0.5-2.6-7.7-5.8-16.1c-3.2-8.4-5.8-15.8-5.8-16.4c0-0.6,0.8-2.3,1.7-3.7c4.3-6.4,5.6-14.2,3.5-21.7c-0.6-2.4-1.9-5.9-2.7-7.7c-0.8-1.9-1.5-3.4-1.5-3.5c0-0.1,4.8-0.2,10.7-0.2H246V92.9V9.7H128H10V92.9z M239,92.9v76.3h-8.6h-8.6l-1.5-3.3c-0.8-1.9-5-12.2-9.4-23.1c-4.4-10.8-8.1-19.8-8.2-19.9c-0.1-0.1-1.3,0.4-2.8,1.1c-4.2,2-8.2,6-10.3,10.1c-1.7,3.4-1.8,4.1-1.6,8.2c0.2,3.8,0.8,5.8,3.5,12.6c1.8,4.5,3.8,9.5,4.5,11.1l1.2,3.1h-90.2H17V92.9V16.7h111h111V92.9z"/><path fill="#000000" d="M117.7,32.7c-0.2,0.2-0.4,1.7-0.4,3.5v3.1h-17c-14.4,0-17.2,0.1-18.3,0.9c-1.7,1.2-1.7,4.3-0.1,5.8c1.2,1,2.5,1.1,18.3,1.3l17,0.2V53v5.4H95.9c-20.7,0-21.4,0.1-22.9,1.2c-1.9,1.5-2,3.9-0.3,5.5c1.2,1,2.6,1.1,22.9,1.3l21.7,0.2V72v5.5H94.9c-18.6,0-22.7,0.2-24,0.9c-2.8,1.5-2.8,5.2-0.1,6.7c0.7,0.3,9.4,0.6,23.7,0.6h22.7v5.4v5.5l-20.2,0.2C78.9,97,76.7,97.1,75.4,98c-1.9,1.2-2.1,3.9-0.4,5.6c1.1,1.1,1.9,1.2,21.7,1.2h20.6v5.8v5.8H97.7c-16.8,0-19.8,0.1-20.9,0.9c-1.2,0.8-1.3,1.3-1.3,8.2c0,14.7,2.5,21.4,8.8,23.7c7.1,2.6,12.4-0.8,19-11.7c3.7-6.1,8.8-11.6,11.7-12.3l2-0.5l0.3,11.3l0.3,11.4l10.3,0.2l10.3,0.1v-11.6v-11.6l2.2,0.9c3.8,1.6,5.9,3.9,11.7,12.5c6.1,9.2,8.6,11.5,12.9,12c6,0.7,10.9-2.6,13.1-8.5c1.4-3.7,2.5-11.7,2.5-17.9c0-3.7-0.2-4.4-1.4-5.6l-1.4-1.5h-19.8h-19.7v-5.8v-5.8h20.8h20.8l1.2-1.3c1.6-1.7,1.6-2.8-0.1-4.9l-1.4-1.6l-20.6-0.2l-20.6-0.2v-5.5v-5.5h23c15,0,23.3-0.2,24.1-0.6c2.7-1.4,2.4-5.5-0.5-6.8c-0.9-0.4-8.6-0.6-23.9-0.6h-22.6V72v-5.4l22.1-0.2l22.1-0.2l1.1-1.4c1.5-1.8,1.4-3.3-0.3-5l-1.4-1.4h-21.8h-21.7V53v-5.4l17-0.2l17-0.2l1.5-1.4c1.9-1.7,1.9-3.5,0.2-5.2c-1.3-1.3-1.7-1.3-18.6-1.3h-17.2v-3.5v-3.5h-10C122.6,32.3,117.9,32.5,117.7,32.7z"/></g></g></g>
</svg>