<?xml version="1.0" encoding="UTF-8"?>
<svg version="1.1" xmlns="http://www.w3.org/2000/svg" width="647" height="729">
<path d="M0 0 C4.70808666 2.50148881 7.56718535 5.97683196 10.05859375 10.5859375 C11.91779972 17.24809223 10.98259616 22.26031464 7.80859375 28.2734375 C5.80258752 31.4644646 3.63026425 34.52398439 1.43359375 37.5859375 C0.81291016 38.46185547 0.19222656 39.33777344 -0.44726562 40.24023438 C-5.02265548 46.68294069 -9.65231942 53.08694033 -14.29443359 59.48168945 C-18.92580428 65.87169334 -23.44767662 72.33503515 -27.95874023 78.81030273 C-31.83322993 84.36164191 -35.77099571 89.86199174 -39.75390625 95.3359375 C-44.21729163 101.47292307 -48.55461945 107.68236728 -52.81640625 113.9609375 C-57.12467415 120.3071599 -61.53477423 126.55275519 -66.1003418 132.71606445 C-71.59514828 140.14225813 -76.88288374 147.71359391 -82.19140625 155.2734375 C-84.16885509 158.08714997 -86.14799695 160.89966018 -88.12890625 163.7109375 C-88.62197266 164.41089844 -89.11503906 165.11085937 -89.62304688 165.83203125 C-93.24960895 170.96848493 -96.93258587 176.06205265 -100.62890625 181.1484375 C-105.13233045 187.34881391 -109.5124733 193.62058418 -113.81640625 199.9609375 C-118.12469074 206.3071497 -122.53477358 212.55275433 -127.1003418 218.71606445 C-132.59514828 226.14225813 -137.88288374 233.71359391 -143.19140625 241.2734375 C-145.16885509 244.08714997 -147.14799695 246.89966018 -149.12890625 249.7109375 C-149.62197266 250.41089844 -150.11503906 251.11085937 -150.62304688 251.83203125 C-154.24960895 256.96848493 -157.93258587 262.06205265 -161.62890625 267.1484375 C-166.13233045 273.34881391 -170.5124733 279.62058418 -174.81640625 285.9609375 C-179.12469074 292.3071497 -183.53477358 298.55275433 -188.1003418 304.71606445 C-193.59514828 312.14225813 -198.88288374 319.71359391 -204.19140625 327.2734375 C-206.16885509 330.08714998 -208.14805119 332.89962198 -210.12890625 335.7109375 C-210.61617188 336.40292236 -211.1034375 337.09490723 -211.60546875 337.80786133 C-214.26615273 341.57730873 -216.94925127 345.32898141 -219.66015625 349.0625 C-220.23902588 349.85986572 -220.81789551 350.65723145 -221.41430664 351.47875977 C-222.52034924 352.99931242 -223.62873936 354.5181616 -224.73999023 356.03491211 C-232.33406985 365.72373111 -232.33406985 365.72373111 -235.19140625 377.2734375 C-233.65667367 384.17094269 -230.41030075 389.35302854 -226.25390625 394.9609375 C-224.9771761 396.73461368 -223.70395003 398.51081561 -222.43359375 400.2890625 C-221.74749023 401.24876953 -221.06138672 402.20847656 -220.35449219 403.19726562 C-216.41882428 408.79426513 -212.65707786 414.50713278 -208.87890625 420.2109375 C-207.15873811 422.80287223 -205.43712614 425.39384472 -203.71484375 427.984375 C-203.27120483 428.65171661 -202.82756592 429.31905823 -202.3704834 430.00662231 C-196.95527598 438.14357205 -191.48032006 446.24011113 -186.00390625 454.3359375 C-185.2176738 455.4984201 -185.2176738 455.4984201 -184.41555786 456.68438721 C-181.74033241 460.63958399 -179.06444886 464.59433488 -176.38818359 468.54882812 C-171.19354429 476.22512897 -166.00514177 483.9056454 -160.81640625 491.5859375 C-160.30678345 492.34027069 -159.79716064 493.09460388 -159.27209473 493.87179565 C-157.19127471 496.95181117 -155.11045936 500.03182982 -153.02975464 503.11192322 C-150.27280966 507.19297645 -147.51542157 511.27372937 -144.75732422 515.35400391 C-121.69786176 549.46848834 -121.69786176 549.46848834 -111.79855347 564.27459717 C-111.0292276 565.42488255 -110.25916745 566.57467724 -109.48831177 567.72393799 C-108.44819198 569.27532372 -107.41149864 570.8290051 -106.375 572.3828125 C-105.51733032 573.66623535 -105.51733032 573.66623535 -104.64233398 574.97558594 C-100.97051546 580.79068874 -100.27056126 585.40981969 -101.19140625 592.2734375 C-103.38433847 597.94870843 -106.84257989 601.36646665 -112.19140625 604.2734375 C-115.08938646 605.2394309 -116.93317999 605.40334445 -119.94683838 605.41387939 C-121.41453423 605.42244461 -121.41453423 605.42244461 -122.91188049 605.43118286 C-123.98413376 605.43230072 -125.05638702 605.43341858 -126.16113281 605.43457031 C-127.2914946 605.43953522 -128.42185638 605.44450012 -129.58647156 605.44961548 C-133.3349976 605.46424917 -137.08348131 605.47104144 -140.83203125 605.4765625 C-143.43414308 605.48231332 -146.0362549 605.48807106 -148.6383667 605.49383545 C-153.40095711 605.50340665 -158.16353837 605.50930339 -162.92613721 605.5123322 C-169.92680493 605.51680917 -176.92727704 605.5343408 -183.92788529 605.5633328 C-189.99819708 605.5875958 -196.06842842 605.59527859 -202.13878632 605.59700775 C-204.71755792 605.6000344 -207.2963287 605.6080633 -209.87506866 605.62119293 C-213.48489667 605.638259 -217.09424951 605.63637136 -220.70410156 605.62988281 C-222.30033607 605.64370499 -222.30033607 605.64370499 -223.92881775 605.6578064 C-230.55508844 605.62052126 -235.74204813 605.07920469 -241.0546875 600.7578125 C-244.51957643 596.61115298 -247.59354351 592.25999497 -250.5625 587.75 C-251.45477657 586.40328412 -252.34763018 585.05695044 -253.2409668 583.7109375 C-253.7175473 582.99276855 -254.19412781 582.27459961 -254.68515015 581.53466797 C-257.35153727 577.53181892 -260.04547148 573.54760148 -262.73828125 569.5625 C-263.31334412 568.71106918 -263.88840698 567.85963837 -264.480896 566.98240662 C-265.68030529 565.20662857 -266.87980037 563.43090846 -268.07937622 561.65524292 C-278.3736318 546.41421076 -288.64636759 531.15947958 -298.82592773 515.84155273 C-299.70293722 514.52195603 -300.57997208 513.20237618 -301.45703125 511.8828125 C-301.89805679 511.21919205 -302.33908234 510.55557159 -302.79347229 509.87184143 C-306.10550414 504.89318788 -309.43601027 499.92713828 -312.77210999 494.96458435 C-315.37803393 491.08715638 -317.97955642 487.20678471 -320.58078003 483.32620239 C-321.85520878 481.42743157 -323.13165454 479.53001287 -324.41018677 477.63400269 C-326.19278496 474.9899613 -327.96820987 472.34123627 -329.7421875 469.69140625 C-330.27958557 468.89820984 -330.81698364 468.10501343 -331.3706665 467.28778076 C-332.10624786 466.18469574 -332.10624786 466.18469574 -332.85668945 465.05932617 C-333.28552933 464.42161789 -333.7143692 463.78390961 -334.15620422 463.12687683 C-336.45880746 459.0042657 -336.50700338 454.92849519 -336.19140625 450.2734375 C-334.18053243 444.44190341 -331.72056024 440.10707414 -326.69140625 436.4609375 C-321.21348257 434.60235625 -314.81141947 433.64114261 -309.36749268 436.09585571 C-303.37891923 439.55947107 -300.1366377 443.89583388 -296.41796875 449.640625 C-295.80931976 450.55240509 -295.20067078 451.46418518 -294.57357788 452.40359497 C-292.63925522 455.30874979 -290.72758427 458.22801827 -288.81640625 461.1484375 C-287.54184771 463.07129641 -286.26581787 464.99318092 -284.98828125 466.9140625 C-281.91486725 471.54171862 -278.85772697 476.1798475 -275.80560303 480.82156372 C-266.63576979 494.75002274 -257.27071801 508.5487906 -247.9375 522.36791992 C-246.69269307 524.21125419 -245.44812418 526.05474924 -244.20379639 527.89840698 C-242.97858377 529.71356901 -241.7527204 531.52829197 -240.52618408 533.34255981 C-237.58471768 537.69910441 -234.66229689 542.06626707 -231.78027344 546.46240234 C-231.24123383 547.2817778 -230.70219421 548.10115326 -230.14682007 548.94535828 C-229.14382528 550.47277313 -228.14557817 552.00332153 -227.15322876 553.53767395 C-222.65747749 560.37493507 -218.39581138 565.44295888 -210.19140625 567.2734375 C-206.34682648 567.67168643 -202.55361923 567.6935217 -198.69140625 567.6484375 C-197.20060547 567.66583984 -197.20060547 567.66583984 -195.6796875 567.68359375 C-188.1434947 567.65372773 -182.08516534 566.91556536 -176.31640625 561.6484375 C-173.80744329 557.66361398 -172.13279631 554.03549546 -172.19140625 549.2734375 C-174.27875211 542.64079231 -177.48168457 537.32494008 -181.3359375 531.5703125 C-181.94217453 530.65243958 -182.54841156 529.73456665 -183.17301941 528.78887939 C-184.45790548 526.84669988 -185.74658702 524.90702665 -187.03881836 522.96972656 C-188.96694074 520.0788605 -190.88395657 517.18090557 -192.79882812 514.28125 C-198.82788987 505.17579877 -204.94296649 496.14232519 -211.23828125 487.21875 C-217.96202137 477.68645931 -224.3976522 467.97875462 -230.78378296 458.21798706 C-233.94884259 453.38143086 -237.12446345 448.55182382 -240.30078125 443.72265625 C-240.91273849 442.79209915 -241.52469574 441.86154205 -242.15519714 440.90278625 C-247.04063786 433.48281401 -252.00442698 426.12220984 -257.03540039 418.80004883 C-261.67728299 412.04226726 -266.26702147 405.2508297 -270.8265686 398.43728638 C-271.64492803 397.2152967 -272.46454414 395.99414755 -273.28549194 394.77389526 C-274.42160032 393.08462331 -275.55270894 391.39199207 -276.68359375 389.69921875 C-277.3369873 388.72380127 -277.99038086 387.74838379 -278.66357422 386.7434082 C-280.78338185 383.31641975 -281.3856934 380.54917869 -281.50390625 376.5859375 C-281.55998047 375.37357422 -281.55998047 375.37357422 -281.6171875 374.13671875 C-280.55670329 367.00520566 -275.96412965 361.31421896 -271.62890625 355.7734375 C-267.50234354 350.38703418 -263.5073817 344.94697115 -259.69140625 339.3359375 C-251.39343958 327.14927784 -242.84290318 315.15055051 -234.18798828 303.21533203 C-229.52737137 296.77291798 -224.96974138 290.26146366 -220.42456055 283.73730469 C-216.54993655 278.18570086 -212.61198954 272.68512068 -208.62890625 267.2109375 C-204.16552087 261.07395193 -199.82819305 254.86450772 -195.56640625 248.5859375 C-191.25813835 242.2397151 -186.84803827 235.99411981 -182.2824707 229.83081055 C-177.31027007 223.11091514 -172.51145108 216.27136376 -167.70751953 209.43066406 C-165.20797318 205.87414368 -162.69934864 202.32403977 -160.19140625 198.7734375 C-157.1998243 194.53747027 -154.20961791 190.30057132 -151.2265625 186.05859375 C-146.13618264 178.82502829 -141.00929648 171.62133003 -135.81640625 164.4609375 C-129.39564352 155.60371603 -123.12711557 146.64363153 -116.8671875 137.67236328 C-110.25956244 128.21337087 -103.58935855 118.80227319 -96.81640625 109.4609375 C-90.39575297 100.60363474 -84.1271173 91.64363401 -77.8671875 82.67236328 C-70.7295129 72.45459075 -63.50423477 62.30439593 -56.18725586 52.21435547 C-52.13085853 46.60707126 -48.14885112 40.95089096 -44.19140625 35.2734375 C-39.53206275 28.5917462 -34.83237739 21.9420729 -30.06640625 15.3359375 C-29.53402344 14.59666016 -29.00164062 13.85738281 -28.453125 13.09570312 C-20.98584595 2.77780469 -13.83050836 -4.58551614 0 0 Z " fill="#04B59F" transform="translate(636.19140625,0.7265625)"/>
<path d="M0 0 C0.94755661 -0.00426498 1.89511322 -0.00852997 2.87138367 -0.01292419 C4.41287331 -0.01224442 4.41287331 -0.01224442 5.98550415 -0.0115509 C7.07714371 -0.01490952 8.16878326 -0.01826813 9.29350281 -0.02172852 C12.90129739 -0.0312255 16.5090455 -0.03318098 20.11685181 -0.03425598 C22.62642435 -0.03746931 25.1359967 -0.04083344 27.64556885 -0.04434204 C32.90618186 -0.05033009 38.16678308 -0.05222511 43.42739868 -0.05158997 C49.4968787 -0.05098942 55.56626977 -0.06153932 61.63572729 -0.07733363 C67.48712417 -0.09201468 73.338486 -0.09557723 79.18989944 -0.09498024 C81.67376697 -0.09615975 84.15763517 -0.10057987 86.64149094 -0.10831261 C90.116914 -0.1181196 93.59210859 -0.11523153 97.0675354 -0.10920715 C98.0911467 -0.11482666 99.114758 -0.12044617 100.16938782 -0.12623596 C107.55349725 -0.09374259 113.92574084 0.28209511 119.66714478 5.50773621 C122.80546365 8.93528683 125.21594153 12.85744423 127.71841431 16.75871277 C129.13195791 18.92008971 130.54740037 21.08014662 131.96450806 23.23918152 C132.55250183 24.13803825 132.55250183 24.13803825 133.15237427 25.05505371 C138.48064725 33.1859905 143.94581592 41.22516308 149.39187622 49.27742004 C159.67210398 64.48136206 169.91907144 79.70700299 180.0753479 94.99406433 C180.94722364 96.30625995 181.81913131 97.61843435 182.69107056 98.93058777 C183.12328918 99.58110107 183.55550781 100.23161438 184.00082397 100.90184021 C187.01057452 105.42630271 190.04009855 109.93710938 193.07844543 114.44241333 C195.31495241 117.75975368 197.54630754 121.08054424 199.77734375 124.40156555 C200.85218982 125.99851712 201.92947329 127.59383121 203.00933838 129.18739319 C204.50725646 131.39837086 205.99648275 133.6149743 207.48403931 135.83293152 C208.1511216 136.81033295 208.1511216 136.81033295 208.8316803 137.80747986 C213.00954549 144.07194444 214.66735342 149.20500987 213.69497681 156.73527527 C212.42608912 162.38090601 208.84584376 166.00709313 204.15591431 169.13371277 C198.82678601 171.73631031 193.82304372 171.37658567 188.15591431 170.13371277 C179.14011628 165.89098429 173.671475 155.1092944 168.40982056 147.01652527 C167.79501328 146.07872223 167.18020599 145.14091919 166.54676819 144.17469788 C164.60034856 141.20506307 162.65891028 138.23222111 160.71841431 135.25871277 C150.82635822 120.00180538 150.82635822 120.00180538 140.32266235 105.16691589 C133.86280278 96.12384036 127.94119142 86.68489199 121.86099243 77.38444519 C112.85656078 63.59054312 112.85656078 63.59054312 103.55435181 49.99699402 C102.81620239 48.94423279 102.07805298 47.89147156 101.3175354 46.80680847 C98.35470524 43.14292464 95.65091135 40.63204512 91.15591431 39.13371277 C87.08098571 38.88427649 83.00598143 38.86294515 78.92398071 38.83854675 C76.92683882 38.8213925 74.92998502 38.77749752 72.93325806 38.73332214 C63.33041127 38.66819397 63.33041127 38.66819397 55.15591431 43.13371277 C51.50696179 47.35881568 49.89309213 51.54231774 50.15591431 57.13371277 C52.17695208 63.82742207 55.4928527 69.06644723 59.44107056 74.79386902 C60.36465614 76.15517189 60.36465614 76.15517189 61.30690002 77.54397583 C63.26967507 80.43340642 65.24368642 83.31494151 67.21841431 86.19621277 C68.51801862 88.10388734 69.81685365 90.01208624 71.11489868 91.92082214 C73.02550092 94.72955101 74.93687841 97.53772548 76.8515625 100.34367371 C80.73832454 106.03985089 84.59070852 111.75676141 88.40550232 117.50131226 C91.81446893 122.63166625 95.25519944 127.74018303 98.70278931 132.84465027 C99.27939301 133.69841751 99.8559967 134.55218475 100.45007324 135.43182373 C101.64922505 137.20715276 102.8484452 138.98243564 104.04772949 140.75767517 C115.96023699 158.39411033 127.817707 176.06575013 139.59692383 193.79145813 C142.23375499 197.75649156 144.88709905 201.70987491 147.55044556 205.65715027 C148.20988159 206.6369989 148.86931763 207.61684753 149.54873657 208.62638855 C150.73683681 210.39034334 151.92840412 212.15197098 153.12442017 213.91056824 C157.27070642 220.07798093 160.39831315 225.41213717 159.15591431 233.13371277 C157.03923818 239.02453005 153.85709385 243.83829188 150.28091431 248.94621277 C149.70865112 249.77298523 149.13638794 250.59975769 148.54678345 251.45158386 C143.57074862 258.61114061 138.46930692 265.67873339 133.34341431 272.73136902 C130.22417776 277.02790865 127.15095917 281.35561779 124.09341431 285.69621277 C123.60147583 286.39448181 123.10953735 287.09275085 122.60269165 287.81217957 C121.11964642 289.91880559 119.63758594 292.02612045 118.15591431 294.13371277 C116.17803994 296.94712481 114.19910084 299.75977971 112.21841431 302.57121277 C111.72518677 303.27141541 111.23195923 303.97161804 110.7237854 304.69303894 C107.09734634 309.82921998 103.4145622 314.92256527 99.71841431 320.00871277 C95.21499059 326.20908851 90.83483099 332.48084914 86.53091431 338.82121277 C82.26929695 345.09899065 77.90666284 351.27466832 73.38540649 357.36759949 C68.97012459 363.33664163 64.73237467 369.42512149 60.49038696 375.51799011 C56.58287302 381.12099662 52.6130269 386.67320176 48.59341431 392.19621277 C44.12994968 398.33313788 39.7926831 404.54263531 35.53091431 410.82121277 C31.26931329 417.09900065 26.90666219 423.27466919 22.38540649 429.36759949 C17.97012459 435.33664163 13.73237467 441.42512149 9.49038696 447.51799011 C5.58287302 453.12099662 1.6130269 458.67320176 -2.40658569 464.19621277 C-6.87005032 470.33313788 -11.2073169 476.54263531 -15.46908569 482.82121277 C-19.73068671 489.09900065 -24.09333781 495.27466919 -28.61459351 501.36759949 C-33.02987541 507.33664163 -37.26762533 513.42512149 -41.50961304 519.51799011 C-45.41712698 525.12099662 -49.3869731 530.67320176 -53.40658569 536.19621277 C-58.43664043 543.11215627 -63.28952423 550.1342327 -68.09017944 557.21086121 C-72.01834975 562.98096015 -76.07262925 568.64258143 -80.24301147 574.23991394 C-82.23645201 576.91828613 -84.14725951 579.60245752 -85.96127319 582.40715027 C-88.77972242 586.48863898 -92.18064006 588.57923089 -96.84408569 590.13371277 C-103.0659599 590.64162087 -108.58912471 590.88725633 -113.84408569 587.13371277 C-118.19464136 582.79530949 -121.11987649 578.61405101 -121.21908569 572.38371277 C-121.26162476 571.18488464 -121.26162476 571.18488464 -121.30502319 569.96183777 C-120.10776371 562.61594057 -115.25835238 556.64776663 -110.90658569 550.82121277 C-106.21769924 544.44344777 -101.65720604 538.00095466 -97.21908569 531.44621277 C-92.95829883 525.1678926 -88.59480985 518.99272437 -84.07357788 512.89982605 C-79.65829597 506.9307839 -75.42054605 500.84230404 -71.17855835 494.74943542 C-67.27104441 489.14642892 -63.30119829 483.59422378 -59.28158569 478.07121277 C-54.81812106 471.93428766 -50.48085449 465.72479022 -46.21908569 459.44621277 C-41.95748468 453.16842488 -37.59483358 446.99275635 -33.07357788 440.89982605 C-28.65829597 434.9307839 -24.42054605 428.84230404 -20.17855835 422.74943542 C-16.27104441 417.14642892 -12.30119829 411.59422378 -8.28158569 406.07121277 C-3.81812058 399.93428699 0.51912948 393.72478009 4.78091431 387.44621277 C9.08918221 381.09999037 13.49928228 374.85439508 18.06484985 368.69108582 C23.03705049 361.97119041 27.83586948 355.13163903 32.63980103 348.29093933 C35.13934738 344.73441894 37.64797192 341.18431504 40.15591431 337.63371277 C43.14749626 333.39774554 46.13770265 329.16084659 49.12075806 324.91886902 C54.22823419 317.66136304 59.3762728 310.43784953 64.59341431 303.25871277 C69.09683802 297.05833702 73.47699762 290.78657639 77.78091431 284.44621277 C82.03578286 278.17837653 86.39209597 272.01292526 90.90444946 265.9283905 C94.90695476 260.51473617 98.79200594 255.02196571 102.65591431 249.50871277 C103.25589233 248.65478943 103.85587036 247.80086609 104.47402954 246.92106628 C111.0429006 237.90735554 111.0429006 237.90735554 112.69497681 227.16105652 C111.32081659 219.44385243 105.92493766 213.17259154 101.39419556 206.98918152 C97.20361026 201.25139233 93.25703181 195.37510256 89.34341431 189.44621277 C87.75685897 187.05296431 86.1676262 184.66150103 84.57778931 182.27043152 C84.15323959 181.63174133 83.72868988 180.99305115 83.29127502 180.33500671 C77.59963529 171.78202368 71.84476557 163.2716009 66.09341431 154.75871277 C65.51908661 153.90846527 64.94475891 153.05821777 64.35302734 152.1822052 C60.85308704 147.00106874 57.35199346 141.82071262 53.85043335 136.64067078 C51.17179831 132.6777613 48.49393418 128.71433104 45.81607056 124.75090027 C44.78579842 123.22607842 43.75552499 121.70125746 42.72525024 120.17643738 C40.67770683 117.14601291 38.63018542 114.11557359 36.58267212 111.08512878 C36.07305939 110.3308812 35.56344666 109.57663361 35.03839111 108.79953003 C34.00352874 107.26789094 32.96867769 105.73624419 31.93383789 104.20458984 C29.21070742 100.17425607 26.48711659 96.14423431 23.7628479 92.1146698 C15.88428723 80.46080328 8.01240911 68.80246907 0.15591431 57.13371277 C-0.36214783 56.36434387 -0.88020996 55.59497498 -1.41397095 54.80229187 C-4.33062901 50.46928061 -7.24287581 46.13336337 -10.14837646 41.79286194 C-11.02027196 40.49123401 -11.89331662 39.19037502 -12.76757812 37.89033508 C-13.95531153 36.12343286 -15.13860605 34.35364432 -16.32064819 32.58293152 C-16.98145386 31.59639587 -17.64225952 30.60986023 -18.3230896 29.59342957 C-21.53196227 24.40412103 -21.5575045 19.06806011 -20.84408569 13.13371277 C-18.68177551 7.50425006 -15.20262165 3.92461691 -9.84408569 1.13371277 C-6.51770239 0.31172328 -3.41977788 0.00699245 0 0 Z " fill="#04B59F" transform="translate(120.84408569335938,138.8662872314453)"/>
</svg>
